# xmcd
#
# Track frame offsets:
#	183
#	19545
#	32785
#	45213
#	63213
#	81173
#	96458
#	112105
#	129773
#	144670
#
# Disc length: 2121 seconds
#
# Revision: 2
# Processed by: cddbd v1.5.1PL0 Copyright (c) Steve Scherf et al.
# Submitted via: MusicManager 7.2.0.0 
#
DISCID=7b08470a
DTITLE=Crystal Gayle - The Best Of Crystal Gayle
DYEAR=1987
DGENRE=
TTITLE0=Cry
TTITLE1=Turning Away
TTITLE2=Baby What About You
TTITLE3=Straight To The Heart
TTITLE4='Til I Gain Control Again
TTITLE5=Only Love Can Save Me Now
TTITLE6=A Long And Lasting Love
TTITLE7=Our love Is On The Faultline
TTITLE8=I Don't Wanna Lose Your Love
TTITLE9=The Sound Of Goodbye
EXTD=
EXTT0=
EXTT1=
EXTT2=
EXTT3=
EXTT4=
EXTT5=
EXTT6=
EXTT7=
EXTT8=
EXTT9=
PLAYORDER=
